<?xml version="1.0" encoding="utf-8"?>
<!-- Generator: Adobe Illustrator 28.2.0, SVG Export Plug-In . SVG Version: 6.00 Build 0)  -->
<svg version="1.1" id="Layer_2_00000060742560966905275080000005382924424691239817_"
	 xmlns="http://www.w3.org/2000/svg" xmlns:xlink="http://www.w3.org/1999/xlink" x="0px" y="0px" viewBox="0 0 589.3 269.1"
	 style="enable-background:new 0 0 589.3 269.1;" xml:space="preserve">
<style type="text/css">
	.st0{fill:#FFFFFF;stroke:#DFDFDF;stroke-width:3;stroke-miterlimit:10;}
	.st1{fill:url(#SVGID_1_);}
	.st2{fill:url(#SVGID_00000077321525297712991580000009677099928229764279_);}
	.st3{fill:url(#SVGID_00000004546075275661381900000004463026164605328808_);}
	.st4{fill:url(#SVGID_00000078020327260103274110000014147315849894957721_);}
	.st5{fill:url(#SVGID_00000093162137187993771960000005026199328553302673_);}
	.st6{fill:url(#SVGID_00000125593212421928889270000010691939800959641258_);}
	.st7{fill:url(#SVGID_00000003078832337234708960000012335588795232230065_);}
	.st8{fill:url(#SVGID_00000093871714150163648220000009383208056402753670_);}
	.st9{fill:url(#SVGID_00000023277649113021206440000010966110391406646433_);}
	.st10{fill:url(#SVGID_00000157277903332021403520000007166149741449517984_);}
	.st11{fill:url(#SVGID_00000083800502120108936090000000160535959771803804_);}
	.st12{fill:url(#SVGID_00000079479602626339656770000001975506541170260871_);}
	.st13{fill:url(#SVGID_00000163774760906596339220000004758392055078730387_);}
	.st14{fill:url(#SVGID_00000016792407626395872640000003354252013152548007_);}
	.st15{fill:url(#SVGID_00000083807614364706888180000013459015897770572434_);}
	.st16{fill:url(#SVGID_00000116920685109430957740000014151534184128807583_);}
	.st17{fill:url(#SVGID_00000124881638023043766370000009039689103363987343_);}
	.st18{fill:url(#SVGID_00000139251391938231446320000016064240364332522161_);}
	.st19{fill:url(#SVGID_00000180328912898343072110000006570311713971645106_);}
	.st20{fill:url(#SVGID_00000081615825390144859930000000781657374577771142_);}
	.st21{fill:url(#SVGID_00000029024907951838303380000008680517526949771941_);}
	.st22{fill:url(#SVGID_00000066510053199074278120000008587241881165236145_);}
	.st23{fill:url(#SVGID_00000139295104081313388010000015693670116893568447_);}
	.st24{fill:url(#SVGID_00000003803781564950040080000000393884508445713310_);}
	.st25{fill:url(#SVGID_00000170266660636224840320000017114572977366275757_);}
	.st26{fill:url(#SVGID_00000030462042788229868600000017114987662615390618_);}
	.st27{fill:url(#SVGID_00000013910006624495157350000001557867250789686915_);}
	.st28{fill:url(#SVGID_00000160893023332545009670000014260416553682731684_);}
	.st29{fill:url(#SVGID_00000088106096481202746040000001193931932395843258_);}
	.st30{fill:url(#SVGID_00000052818394591949112070000018186110400391397273_);}
	.st31{fill:url(#SVGID_00000141449900721733974940000015447728662469346465_);}
	.st32{fill:url(#SVGID_00000021092097851546377850000011907898183951928722_);}
	.st33{fill:url(#SVGID_00000057112040998950954190000005334505755367906239_);}
	.st34{fill:url(#SVGID_00000150802817080497181550000018087172032541949862_);}
	.st35{fill:url(#SVGID_00000149357353148420886980000017327415062129304215_);}
	.st36{fill:url(#SVGID_00000112598187422893217200000018198847007483731365_);}
	.st37{fill:url(#SVGID_00000063608237015145141960000001936419309005937805_);}
	.st38{fill:url(#SVGID_00000057844310463142913490000005954395325374692997_);}
	.st39{fill:url(#SVGID_00000054969990573198488850000001865926240921101210_);}
	.st40{fill:url(#SVGID_00000084514555336405166830000003368135126084447109_);}
	.st41{fill:url(#SVGID_00000147184386483940373160000011204923650686073252_);}
	.st42{fill:url(#SVGID_00000047745028956905537060000000232144524633944739_);}
	.st43{fill:url(#SVGID_00000173128962473683082330000017275273056930295436_);}
	.st44{fill:url(#SVGID_00000171707463969804341380000000998091576019145344_);}
	.st45{fill:#2EA56F;}
	.st46{fill:#FFFFFF;}
	.st47{fill:#CA0607;}
	.st48{fill:url(#SVGID_00000162322482046593724050000014604364027612090008_);}
	.st49{fill:url(#SVGID_00000164484438482510524450000005579586369200865929_);}
	.st50{fill:url(#SVGID_00000109027935677941366040000007871991212943300282_);}
	.st51{fill:url(#SVGID_00000170977552364742012950000008150000142013252790_);}
	.st52{fill:url(#SVGID_00000074444446405111514240000017686730932213253766_);}
	.st53{fill:url(#SVGID_00000046300055882086641830000005398311543895562175_);}
	.st54{fill:url(#SVGID_00000024722784175521818850000006441708153361350542_);}
	.st55{fill:url(#SVGID_00000165215946931815866370000013742190094513284767_);}
	.st56{fill:url(#SVGID_00000167386972422452576880000017466079973814769063_);}
	.st57{fill:url(#SVGID_00000137845363451492763570000006412985036665222030_);}
	.st58{fill:url(#SVGID_00000139979850104491011520000003570117882256026790_);}
	.st59{fill:url(#SVGID_00000167386871060132023260000011181691641848513699_);}
	.st60{fill:url(#SVGID_00000041264255903586566420000010984927395602248100_);}
	.st61{fill:url(#SVGID_00000000206003680566061300000015570384374534380695_);}
	.st62{fill:url(#SVGID_00000065048472376148397970000001130726900218593956_);}
	.st63{fill:url(#SVGID_00000137105166807514352040000007418344276491202693_);}
	.st64{fill:url(#SVGID_00000105418282149665847160000000645294752430129832_);}
	.st65{fill:url(#SVGID_00000119091362020819639990000012981552444669123752_);}
	
		.st66{fill:none;stroke:url(#SVGID_00000067236791506433296080000011738540651501046162_);stroke-width:4;stroke-linecap:round;stroke-miterlimit:10;}
	.st67{fill:#FFFFFF;stroke:#EAEBED;stroke-width:2;stroke-miterlimit:10;}
	.st68{fill:#333333;}
</style>
<g id="Layer_1-2">
	<path class="st0" d="M391.8,1.5h174.9c11.7,0,21.1,9.5,21.1,21.1v221.9c0,11.7-9.5,21.1-21.1,21.1H391.8
		c-11.7,0-21.1-9.5-21.1-21.1V22.6C370.7,11,380.1,1.5,391.8,1.5z"/>
	<g>
		
			<linearGradient id="SVGID_1_" gradientUnits="userSpaceOnUse" x1="436.8588" y1="287.0186" x2="624.1988" y2="117.0187" gradientTransform="matrix(1 0 0 -1 0 272)">
			<stop  offset="0" style="stop-color:#E8E8E8"/>
			<stop  offset="1" style="stop-color:#F2F2F2"/>
		</linearGradient>
		<path class="st1" d="M565,79.9v1.7c0,3-2.4,5.4-5.4,5.4h-36.5V74.5h36.5C562.6,74.5,565,76.9,565,79.9z"/>
		
			<linearGradient id="SVGID_00000106865256832443240730000009831297165313626249_" gradientUnits="userSpaceOnUse" x1="417.4911" y1="265.6613" x2="604.8212" y2="95.6613" gradientTransform="matrix(1 0 0 -1 0 272)">
			<stop  offset="0" style="stop-color:#E8E8E8"/>
			<stop  offset="1" style="stop-color:#F2F2F2"/>
		</linearGradient>
		
			<rect x="477.8" y="74.5" style="fill:url(#SVGID_00000106865256832443240730000009831297165313626249_);" width="43.4" height="12.5"/>
		
			<linearGradient id="SVGID_00000141456056760710644820000008609752332594976163_" gradientUnits="userSpaceOnUse" x1="397.0142" y1="243.1046" x2="584.3541" y2="73.1046" gradientTransform="matrix(1 0 0 -1 0 272)">
			<stop  offset="0" style="stop-color:#E8E8E8"/>
			<stop  offset="1" style="stop-color:#F2F2F2"/>
		</linearGradient>
		
			<rect x="432.5" y="74.5" style="fill:url(#SVGID_00000141456056760710644820000008609752332594976163_);" width="43.4" height="12.5"/>
		
			<linearGradient id="SVGID_00000046323552612383883040000013452037300194093471_" gradientUnits="userSpaceOnUse" x1="377.7491" y1="221.8791" x2="565.0792" y2="51.8791" gradientTransform="matrix(1 0 0 -1 0 272)">
			<stop  offset="0" style="stop-color:#E8E8E8"/>
			<stop  offset="1" style="stop-color:#F2F2F2"/>
		</linearGradient>
		<path style="fill:url(#SVGID_00000046323552612383883040000013452037300194093471_);" d="M430.6,74.5V87h-36c-3,0-5.4-2.4-5.4-5.4
			v-1.7c0-3,2.4-5.4,5.4-5.4H430.6z"/>
		
			<linearGradient id="SVGID_00000129917984611086572440000018341310466915929733_" gradientUnits="userSpaceOnUse" x1="369.7188" y1="213.0287" x2="557.0488" y2="43.0287" gradientTransform="matrix(1 0 0 -1 0 272)">
			<stop  offset="0" style="stop-color:#E8E8E8"/>
			<stop  offset="1" style="stop-color:#F2F2F2"/>
		</linearGradient>
		<path style="fill:url(#SVGID_00000129917984611086572440000018341310466915929733_);" d="M430.6,90.7v12.5h-36
			c-3,0-5.4-2.4-5.4-5.4v-1.7c0-3,2.4-5.4,5.4-5.4H430.6z"/>
		
			<linearGradient id="SVGID_00000135687413212178637980000014379747802110289318_" gradientUnits="userSpaceOnUse" x1="388.9826" y1="234.2528" x2="576.3226" y2="64.2528" gradientTransform="matrix(1 0 0 -1 0 272)">
			<stop  offset="0" style="stop-color:#E8E8E8"/>
			<stop  offset="1" style="stop-color:#F2F2F2"/>
		</linearGradient>
		
			<rect x="432.5" y="90.7" style="fill:url(#SVGID_00000135687413212178637980000014379747802110289318_);" width="43.4" height="12.5"/>
		
			<linearGradient id="SVGID_00000014600925778169997220000002712156281745161861_" gradientUnits="userSpaceOnUse" x1="409.4521" y1="256.8123" x2="596.7921" y2="86.8123" gradientTransform="matrix(1 0 0 -1 0 272)">
			<stop  offset="0" style="stop-color:#E8E8E8"/>
			<stop  offset="1" style="stop-color:#F2F2F2"/>
		</linearGradient>
		
			<rect x="477.8" y="90.7" style="fill:url(#SVGID_00000014600925778169997220000002712156281745161861_);" width="43.4" height="12.5"/>
		
			<linearGradient id="SVGID_00000106851598655831639500000011353031225259802525_" gradientUnits="userSpaceOnUse" x1="428.828" y1="278.1678" x2="616.168" y2="108.1678" gradientTransform="matrix(1 0 0 -1 0 272)">
			<stop  offset="0" style="stop-color:#E8E8E8"/>
			<stop  offset="1" style="stop-color:#F2F2F2"/>
		</linearGradient>
		<path style="fill:url(#SVGID_00000106851598655831639500000011353031225259802525_);" d="M565,96.1v1.7c0,3-2.4,5.4-5.4,5.4h-36.5
			V90.7h36.5C562.6,90.7,565,93.1,565,96.1z"/>
		
			<linearGradient id="SVGID_00000158025341506919374270000000470573053516750487_" gradientUnits="userSpaceOnUse" x1="420.8014" y1="269.3215" x2="608.1414" y2="99.3215" gradientTransform="matrix(1 0 0 -1 0 272)">
			<stop  offset="0" style="stop-color:#E8E8E8"/>
			<stop  offset="1" style="stop-color:#F2F2F2"/>
		</linearGradient>
		<path style="fill:url(#SVGID_00000158025341506919374270000000470573053516750487_);" d="M565,112.2v1.7c0,3-2.4,5.4-5.4,5.4
			h-36.5v-12.5h36.5C562.6,106.8,565,109.2,565,112.2z"/>
		
			<linearGradient id="SVGID_00000078015205733459000320000011391531294213842572_" gradientUnits="userSpaceOnUse" x1="401.4283" y1="247.9681" x2="588.7583" y2="77.9681" gradientTransform="matrix(1 0 0 -1 0 272)">
			<stop  offset="0" style="stop-color:#E8E8E8"/>
			<stop  offset="1" style="stop-color:#F2F2F2"/>
		</linearGradient>
		
			<rect x="477.8" y="106.8" style="fill:url(#SVGID_00000078015205733459000320000011391531294213842572_);" width="43.4" height="12.5"/>
		
			<linearGradient id="SVGID_00000029731822933367151780000000361994228399141301_" gradientUnits="userSpaceOnUse" x1="380.9582" y1="225.408" x2="568.2882" y2="55.408" gradientTransform="matrix(1 0 0 -1 0 272)">
			<stop  offset="0" style="stop-color:#E8E8E8"/>
			<stop  offset="1" style="stop-color:#F2F2F2"/>
		</linearGradient>
		
			<rect x="432.5" y="106.8" style="fill:url(#SVGID_00000029731822933367151780000000361994228399141301_);" width="43.4" height="12.5"/>
		
			<linearGradient id="SVGID_00000110446785915310126840000005683529031090408077_" gradientUnits="userSpaceOnUse" x1="361.6915" y1="204.1817" x2="549.0215" y2="34.1817" gradientTransform="matrix(1 0 0 -1 0 272)">
			<stop  offset="0" style="stop-color:#E8E8E8"/>
			<stop  offset="1" style="stop-color:#F2F2F2"/>
		</linearGradient>
		<path style="fill:url(#SVGID_00000110446785915310126840000005683529031090408077_);" d="M430.6,106.8v12.5h-36
			c-3,0-5.4-2.4-5.4-5.4v-1.7c0-3,2.4-5.4,5.4-5.4H430.6z"/>
		
			<linearGradient id="SVGID_00000066514147578448109340000007589369887893534606_" gradientUnits="userSpaceOnUse" x1="353.6635" y1="195.3338" x2="541.0035" y2="25.3338" gradientTransform="matrix(1 0 0 -1 0 272)">
			<stop  offset="0" style="stop-color:#E8E8E8"/>
			<stop  offset="1" style="stop-color:#F2F2F2"/>
		</linearGradient>
		<path style="fill:url(#SVGID_00000066514147578448109340000007589369887893534606_);" d="M430.6,122.9v12.5h-36
			c-3,0-5.4-2.4-5.4-5.4v-1.7c0-3,2.4-5.4,5.4-5.4H430.6z"/>
		
			<linearGradient id="SVGID_00000046316926481214826510000012839064861911269810_" gradientUnits="userSpaceOnUse" x1="372.9317" y1="216.5619" x2="560.2618" y2="46.5619" gradientTransform="matrix(1 0 0 -1 0 272)">
			<stop  offset="0" style="stop-color:#E8E8E8"/>
			<stop  offset="1" style="stop-color:#F2F2F2"/>
		</linearGradient>
		
			<rect x="432.5" y="122.9" style="fill:url(#SVGID_00000046316926481214826510000012839064861911269810_);" width="43.4" height="12.5"/>
		
			<linearGradient id="SVGID_00000086650617194792255780000012392836486343378364_" gradientUnits="userSpaceOnUse" x1="393.4019" y1="239.122" x2="580.7318" y2="69.122" gradientTransform="matrix(1 0 0 -1 0 272)">
			<stop  offset="0" style="stop-color:#E8E8E8"/>
			<stop  offset="1" style="stop-color:#F2F2F2"/>
		</linearGradient>
		
			<rect x="477.8" y="122.9" style="fill:url(#SVGID_00000086650617194792255780000012392836486343378364_);" width="43.4" height="12.5"/>
		
			<linearGradient id="SVGID_00000015334803024597901830000011568639316969372839_" gradientUnits="userSpaceOnUse" x1="412.7825" y1="260.4728" x2="600.1125" y2="90.4728" gradientTransform="matrix(1 0 0 -1 0 272)">
			<stop  offset="0" style="stop-color:#E8E8E8"/>
			<stop  offset="1" style="stop-color:#F2F2F2"/>
		</linearGradient>
		<path style="fill:url(#SVGID_00000015334803024597901830000011568639316969372839_);" d="M565,128.3v1.7c0,3-2.4,5.4-5.4,5.4
			h-36.5v-12.5h36.5C562.6,122.9,565,125.3,565,128.3z"/>
		
			<linearGradient id="SVGID_00000114067485126622401770000007986365438566174598_" gradientUnits="userSpaceOnUse" x1="404.752" y1="251.6221" x2="592.082" y2="81.6222" gradientTransform="matrix(1 0 0 -1 0 272)">
			<stop  offset="0" style="stop-color:#E8E8E8"/>
			<stop  offset="1" style="stop-color:#F2F2F2"/>
		</linearGradient>
		<path style="fill:url(#SVGID_00000114067485126622401770000007986365438566174598_);" d="M565,144.4v1.7c0,3-2.4,5.4-5.4,5.4
			h-36.5v-12.5h36.5C562.6,139.1,565,141.5,565,144.4z"/>
		
			<linearGradient id="SVGID_00000145777539274399541850000014211440428147465100_" gradientUnits="userSpaceOnUse" x1="385.3704" y1="230.2705" x2="572.7004" y2="60.2705" gradientTransform="matrix(1 0 0 -1 0 272)">
			<stop  offset="0" style="stop-color:#E8E8E8"/>
			<stop  offset="1" style="stop-color:#F2F2F2"/>
		</linearGradient>
		
			<rect x="477.8" y="139.1" style="fill:url(#SVGID_00000145777539274399541850000014211440428147465100_);" width="43.4" height="12.5"/>
		
			<linearGradient id="SVGID_00000124869521004266310070000016525282336972765353_" gradientUnits="userSpaceOnUse" x1="364.9003" y1="207.7104" x2="552.2303" y2="37.7104" gradientTransform="matrix(1 0 0 -1 0 272)">
			<stop  offset="0" style="stop-color:#E8E8E8"/>
			<stop  offset="1" style="stop-color:#F2F2F2"/>
		</linearGradient>
		
			<rect x="432.5" y="139.1" style="fill:url(#SVGID_00000124869521004266310070000016525282336972765353_);" width="43.4" height="12.5"/>
		
			<linearGradient id="SVGID_00000134239663788368311920000017249783511859819153_" gradientUnits="userSpaceOnUse" x1="345.633" y1="186.4833" x2="532.973" y2="16.4833" gradientTransform="matrix(1 0 0 -1 0 272)">
			<stop  offset="0" style="stop-color:#E8E8E8"/>
			<stop  offset="1" style="stop-color:#F2F2F2"/>
		</linearGradient>
		<path style="fill:url(#SVGID_00000134239663788368311920000017249783511859819153_);" d="M430.6,139.1v12.5h-36
			c-3,0-5.4-2.4-5.4-5.4v-1.7c0-3,2.4-5.4,5.4-5.4H430.6z"/>
		
			<linearGradient id="SVGID_00000160888212799801399120000017094649792668840064_" gradientUnits="userSpaceOnUse" x1="337.6005" y1="177.6405" x2="524.9405" y2="7.6405" gradientTransform="matrix(1 0 0 -1 0 272)">
			<stop  offset="0" style="stop-color:#E8E8E8"/>
			<stop  offset="1" style="stop-color:#F2F2F2"/>
		</linearGradient>
		<path style="fill:url(#SVGID_00000160888212799801399120000017094649792668840064_);" d="M430.6,155.2v12.5h-36
			c-3,0-5.4-2.4-5.4-5.4v-1.7c0-3,2.4-5.4,5.4-5.4H430.6z"/>
		
			<linearGradient id="SVGID_00000030464914437049830570000013312986603787575739_" gradientUnits="userSpaceOnUse" x1="356.8689" y1="198.8688" x2="544.1989" y2="28.8688" gradientTransform="matrix(1 0 0 -1 0 272)">
			<stop  offset="0" style="stop-color:#E8E8E8"/>
			<stop  offset="1" style="stop-color:#F2F2F2"/>
		</linearGradient>
		
			<rect x="432.5" y="155.2" style="fill:url(#SVGID_00000030464914437049830570000013312986603787575739_);" width="43.4" height="12.5"/>
		
			<linearGradient id="SVGID_00000078728341908061667110000012957075954329529235_" gradientUnits="userSpaceOnUse" x1="377.344" y1="221.4244" x2="564.674" y2="51.4244" gradientTransform="matrix(1 0 0 -1 0 272)">
			<stop  offset="0" style="stop-color:#E8E8E8"/>
			<stop  offset="1" style="stop-color:#F2F2F2"/>
		</linearGradient>
		
			<rect x="477.8" y="155.2" style="fill:url(#SVGID_00000078728341908061667110000012957075954329529235_);" width="43.4" height="12.5"/>
		
			<linearGradient id="SVGID_00000052073123760999645560000001932087778131501711_" gradientUnits="userSpaceOnUse" x1="396.7205" y1="242.7806" x2="584.0505" y2="72.7806" gradientTransform="matrix(1 0 0 -1 0 272)">
			<stop  offset="0" style="stop-color:#E8E8E8"/>
			<stop  offset="1" style="stop-color:#F2F2F2"/>
		</linearGradient>
		<path style="fill:url(#SVGID_00000052073123760999645560000001932087778131501711_);" d="M565,160.6v1.7c0,3-2.4,5.4-5.4,5.4
			h-36.5v-12.5h36.5C562.6,155.2,565,157.6,565,160.6z"/>
		
			<linearGradient id="SVGID_00000130639340542984172820000013885971722785136562_" gradientUnits="userSpaceOnUse" x1="388.6932" y1="233.9335" x2="576.0232" y2="63.9335" gradientTransform="matrix(1 0 0 -1 0 272)">
			<stop  offset="0" style="stop-color:#E8E8E8"/>
			<stop  offset="1" style="stop-color:#F2F2F2"/>
		</linearGradient>
		<path style="fill:url(#SVGID_00000130639340542984172820000013885971722785136562_);" d="M565,176.7v1.7c0,3-2.4,5.4-5.4,5.4
			h-36.5v-12.5h36.5C562.6,171.3,565,173.7,565,176.7z"/>
		
			<linearGradient id="SVGID_00000042005122806516684760000016053290565328109440_" gradientUnits="userSpaceOnUse" x1="369.3094" y1="212.5793" x2="556.6494" y2="42.5793" gradientTransform="matrix(1 0 0 -1 0 272)">
			<stop  offset="0" style="stop-color:#E8E8E8"/>
			<stop  offset="1" style="stop-color:#F2F2F2"/>
		</linearGradient>
		
			<rect x="477.8" y="171.3" style="fill:url(#SVGID_00000042005122806516684760000016053290565328109440_);" width="43.4" height="12.5"/>
		
			<linearGradient id="SVGID_00000172399217201360486430000018044518632565663930_" gradientUnits="userSpaceOnUse" x1="348.8424" y1="190.0227" x2="536.1724" y2="20.0227" gradientTransform="matrix(1 0 0 -1 0 272)">
			<stop  offset="0" style="stop-color:#E8E8E8"/>
			<stop  offset="1" style="stop-color:#F2F2F2"/>
		</linearGradient>
		
			<rect x="432.5" y="171.3" style="fill:url(#SVGID_00000172399217201360486430000018044518632565663930_);" width="43.4" height="12.5"/>
		
			<linearGradient id="SVGID_00000134227389567603278450000000961939571684035731_" gradientUnits="userSpaceOnUse" x1="329.581" y1="168.7911" x2="516.911" y2="-1.2089" gradientTransform="matrix(1 0 0 -1 0 272)">
			<stop  offset="0" style="stop-color:#E8E8E8"/>
			<stop  offset="1" style="stop-color:#F2F2F2"/>
		</linearGradient>
		<path style="fill:url(#SVGID_00000134227389567603278450000000961939571684035731_);" d="M430.6,171.3v12.5h-36
			c-3,0-5.4-2.4-5.4-5.4v-1.7c0-3,2.4-5.4,5.4-5.4H430.6z"/>
		
			<linearGradient id="SVGID_00000170272747544027171840000011897050966814581128_" gradientUnits="userSpaceOnUse" x1="321.5507" y1="159.9408" x2="508.8807" y2="-10.0592" gradientTransform="matrix(1 0 0 -1 0 272)">
			<stop  offset="0" style="stop-color:#E8E8E8"/>
			<stop  offset="1" style="stop-color:#F2F2F2"/>
		</linearGradient>
		<path style="fill:url(#SVGID_00000170272747544027171840000011897050966814581128_);" d="M430.6,187.5V200h-36
			c-3,0-5.4-2.4-5.4-5.4v-1.7c0-3,2.4-5.4,5.4-5.4H430.6z"/>
		
			<linearGradient id="SVGID_00000078739020547571965820000015252611969510152109_" gradientUnits="userSpaceOnUse" x1="361.2811" y1="203.7312" x2="548.6111" y2="33.7312" gradientTransform="matrix(1 0 0 -1 0 272)">
			<stop  offset="0" style="stop-color:#E8E8E8"/>
			<stop  offset="1" style="stop-color:#F2F2F2"/>
		</linearGradient>
		
			<rect x="477.8" y="187.5" style="fill:url(#SVGID_00000078739020547571965820000015252611969510152109_);" width="43.4" height="12.5"/>
		
			<linearGradient id="SVGID_00000070822897433397552970000016950522093448479416_" gradientUnits="userSpaceOnUse" x1="340.811" y1="181.1711" x2="528.1411" y2="11.1711" gradientTransform="matrix(1 0 0 -1 0 272)">
			<stop  offset="0" style="stop-color:#E8E8E8"/>
			<stop  offset="1" style="stop-color:#F2F2F2"/>
		</linearGradient>
		
			<rect x="432.5" y="187.5" style="fill:url(#SVGID_00000070822897433397552970000016950522093448479416_);" width="43.4" height="12.5"/>
		
			<linearGradient id="SVGID_00000007391451901374503980000008051022810559185072_" gradientUnits="userSpaceOnUse" x1="380.6627" y1="225.0829" x2="567.9927" y2="55.0829" gradientTransform="matrix(1 0 0 -1 0 272)">
			<stop  offset="0" style="stop-color:#E8E8E8"/>
			<stop  offset="1" style="stop-color:#F2F2F2"/>
		</linearGradient>
		<path style="fill:url(#SVGID_00000007391451901374503980000008051022810559185072_);" d="M565,192.9v1.7c0,3-2.4,5.4-5.4,5.4
			h-36.5v-12.5h36.5C562.6,187.5,565,189.9,565,192.9z"/>
		
			<linearGradient id="SVGID_00000097490367440766527880000008617196813422143110_" gradientUnits="userSpaceOnUse" x1="372.6271" y1="216.2368" x2="559.9671" y2="46.2369" gradientTransform="matrix(1 0 0 -1 0 272)">
			<stop  offset="0" style="stop-color:#E8E8E8"/>
			<stop  offset="1" style="stop-color:#F2F2F2"/>
		</linearGradient>
		<path style="fill:url(#SVGID_00000097490367440766527880000008617196813422143110_);" d="M565,209v1.7c0,3-2.4,5.4-5.4,5.4h-36.5
			v-12.5h36.5C562.6,203.6,565,206,565,209z"/>
		
			<linearGradient id="SVGID_00000047055137372458749460000003437741769578040194_" gradientUnits="userSpaceOnUse" x1="353.2512" y1="194.8813" x2="540.5912" y2="24.8813" gradientTransform="matrix(1 0 0 -1 0 272)">
			<stop  offset="0" style="stop-color:#E8E8E8"/>
			<stop  offset="1" style="stop-color:#F2F2F2"/>
		</linearGradient>
		
			<rect x="477.8" y="203.6" style="fill:url(#SVGID_00000047055137372458749460000003437741769578040194_);" width="43.4" height="12.5"/>
		
			<linearGradient id="SVGID_00000006693277381073677750000017250156218227923350_" gradientUnits="userSpaceOnUse" x1="332.7816" y1="172.3218" x2="520.1216" y2="2.3218" gradientTransform="matrix(1 0 0 -1 0 272)">
			<stop  offset="0" style="stop-color:#E8E8E8"/>
			<stop  offset="1" style="stop-color:#F2F2F2"/>
		</linearGradient>
		
			<rect x="432.5" y="203.6" style="fill:url(#SVGID_00000006693277381073677750000017250156218227923350_);" width="43.4" height="12.5"/>
		
			<linearGradient id="SVGID_00000123441771056148565820000016501162508749845894_" gradientUnits="userSpaceOnUse" x1="313.5184" y1="151.0983" x2="500.8484" y2="-18.9017" gradientTransform="matrix(1 0 0 -1 0 272)">
			<stop  offset="0" style="stop-color:#E8E8E8"/>
			<stop  offset="1" style="stop-color:#F2F2F2"/>
		</linearGradient>
		<path style="fill:url(#SVGID_00000123441771056148565820000016501162508749845894_);" d="M430.6,203.6v12.5h-36
			c-3,0-5.4-2.4-5.4-5.4V209c0-3,2.4-5.4,5.4-5.4H430.6z"/>
		
			<linearGradient id="SVGID_00000133519222630939489900000003271913428270868406_" gradientUnits="userSpaceOnUse" x1="305.4917" y1="142.2519" x2="492.8217" y2="-27.7481" gradientTransform="matrix(1 0 0 -1 0 272)">
			<stop  offset="0" style="stop-color:#E8E8E8"/>
			<stop  offset="1" style="stop-color:#F2F2F2"/>
		</linearGradient>
		<path style="fill:url(#SVGID_00000133519222630939489900000003271913428270868406_);" d="M430.6,219.7v12.5h-36
			c-3,0-5.4-2.4-5.4-5.4v-1.7c0-3,2.4-5.4,5.4-5.4H430.6z"/>
		
			<linearGradient id="SVGID_00000162320544228395692580000010985031120175104143_" gradientUnits="userSpaceOnUse" x1="324.7586" y1="163.4785" x2="512.0887" y2="-6.5215" gradientTransform="matrix(1 0 0 -1 0 272)">
			<stop  offset="0" style="stop-color:#E8E8E8"/>
			<stop  offset="1" style="stop-color:#F2F2F2"/>
		</linearGradient>
		
			<rect x="432.5" y="219.7" style="fill:url(#SVGID_00000162320544228395692580000010985031120175104143_);" width="43.4" height="12.5"/>
		
			<linearGradient id="SVGID_00000060739939801887703780000012946537281492282800_" gradientUnits="userSpaceOnUse" x1="345.2288" y1="186.0386" x2="532.5587" y2="16.0386" gradientTransform="matrix(1 0 0 -1 0 272)">
			<stop  offset="0" style="stop-color:#E8E8E8"/>
			<stop  offset="1" style="stop-color:#F2F2F2"/>
		</linearGradient>
		
			<rect x="477.8" y="219.7" style="fill:url(#SVGID_00000060739939801887703780000012946537281492282800_);" width="43.4" height="12.5"/>
		
			<linearGradient id="SVGID_00000005235208089172820110000003931427778492040858_" gradientUnits="userSpaceOnUse" x1="364.5996" y1="207.3896" x2="551.9396" y2="37.3896" gradientTransform="matrix(1 0 0 -1 0 272)">
			<stop  offset="0" style="stop-color:#E8E8E8"/>
			<stop  offset="1" style="stop-color:#F2F2F2"/>
		</linearGradient>
		<path style="fill:url(#SVGID_00000005235208089172820110000003931427778492040858_);" d="M565,225.1v1.7c0,3-2.4,5.4-5.4,5.4
			h-36.5v-12.5h36.5C562.6,219.7,565,222.1,565,225.1z"/>
		
			<linearGradient id="SVGID_00000024724314730090704870000017815817415975559071_" gradientUnits="userSpaceOnUse" x1="297.4614" y1="133.4016" x2="484.7914" y2="-36.5984" gradientTransform="matrix(1 0 0 -1 0 272)">
			<stop  offset="0" style="stop-color:#E8E8E8"/>
			<stop  offset="1" style="stop-color:#F2F2F2"/>
		</linearGradient>
		<path style="fill:url(#SVGID_00000024724314730090704870000017815817415975559071_);" d="M430.6,235.9v12.5h-36
			c-3,0-5.4-2.4-5.4-5.4v-1.7c0-3,2.4-5.4,5.4-5.4H430.6z"/>
		
			<linearGradient id="SVGID_00000075880300183351096680000008217341980283713674_" gradientUnits="userSpaceOnUse" x1="316.7184" y1="154.6283" x2="504.0584" y2="-15.3717" gradientTransform="matrix(1 0 0 -1 0 272)">
			<stop  offset="0" style="stop-color:#E8E8E8"/>
			<stop  offset="1" style="stop-color:#F2F2F2"/>
		</linearGradient>
		
			<rect x="432.5" y="235.9" style="fill:url(#SVGID_00000075880300183351096680000008217341980283713674_);" width="43.4" height="12.5"/>
		
			<linearGradient id="SVGID_00000122001744685028623710000003048390934445926844_" gradientUnits="userSpaceOnUse" x1="337.1879" y1="177.1877" x2="524.528" y2="7.1877" gradientTransform="matrix(1 0 0 -1 0 272)">
			<stop  offset="0" style="stop-color:#E8E8E8"/>
			<stop  offset="1" style="stop-color:#F2F2F2"/>
		</linearGradient>
		
			<rect x="477.8" y="235.9" style="fill:url(#SVGID_00000122001744685028623710000003048390934445926844_);" width="43.4" height="12.5"/>
		
			<linearGradient id="SVGID_00000043454630025201778230000016378298877108232851_" gradientUnits="userSpaceOnUse" x1="356.5689" y1="198.5388" x2="543.9089" y2="28.5388" gradientTransform="matrix(1 0 0 -1 0 272)">
			<stop  offset="0" style="stop-color:#E8E8E8"/>
			<stop  offset="1" style="stop-color:#F2F2F2"/>
		</linearGradient>
		<path style="fill:url(#SVGID_00000043454630025201778230000016378298877108232851_);" d="M565,241.2v1.7c0,3-2.4,5.4-5.4,5.4
			h-36.5v-12.5h36.5C562.6,235.9,565,238.3,565,241.2z"/>
	</g>
	<g>
		<g>
			<path class="st45" d="M523.6,17.6h25.1c10.5,0,19,8.5,19,19l0,0c0,10.5-8.5,19-19,19h-25.1c-10.5,0-19-8.5-19-19l0,0
				C504.6,26.1,513.1,17.6,523.6,17.6z"/>
			<g>
				<path class="st46" d="M522,44.4c-1.3,0-2.5-0.3-3.5-0.9s-1.8-1.5-2.4-2.7c-0.6-1.2-0.9-2.5-0.9-4.2s0.3-3,0.9-4.2
					c0.6-1.2,1.4-2.1,2.4-2.7c1-0.6,2.2-0.9,3.5-0.9c0.8,0,1.5,0.1,2.2,0.4s1.3,0.6,1.9,1s1,1,1.4,1.6c0.4,0.6,0.6,1.4,0.7,2.1H526
					c-0.1-0.5-0.3-0.9-0.5-1.3s-0.5-0.7-0.9-0.9s-0.7-0.5-1.2-0.6s-0.9-0.2-1.3-0.2c-0.9,0-1.7,0.2-2.3,0.7
					c-0.7,0.4-1.2,1.1-1.6,1.9s-0.6,1.9-0.6,3.1s0.2,2.2,0.6,3.1s0.9,1.5,1.6,1.9c0.7,0.4,1.5,0.7,2.3,0.7c0.5,0,0.9-0.1,1.3-0.2
					c0.4-0.1,0.8-0.3,1.2-0.6s0.6-0.6,0.9-0.9s0.4-0.8,0.5-1.3h2.3c-0.1,0.8-0.3,1.4-0.7,2s-0.8,1.2-1.3,1.6s-1.2,0.8-1.9,1.1
					C523.7,44.2,522.9,44.4,522,44.4L522,44.4z"/>
				<path class="st46" d="M536.1,44.4c-1.1,0-2.1-0.2-3-0.5s-1.5-0.9-2-1.5s-0.7-1.5-0.8-2.4h2.3c0,0.5,0.2,1,0.5,1.4
					c0.3,0.4,0.7,0.6,1.2,0.8c0.5,0.2,1,0.3,1.6,0.3c0.6,0,1.2-0.1,1.7-0.3c0.5-0.2,0.9-0.5,1.2-0.8s0.4-0.8,0.4-1.3
					c0-0.4-0.1-0.8-0.4-1.1c-0.2-0.3-0.6-0.5-1-0.7s-0.9-0.3-1.5-0.5l-1.8-0.5c-1.2-0.3-2.2-0.8-2.9-1.5c-0.7-0.7-1-1.5-1-2.5
					c0-0.9,0.2-1.6,0.7-2.3c0.5-0.6,1.1-1.2,1.9-1.5s1.7-0.5,2.7-0.5s2,0.2,2.7,0.5s1.4,0.9,1.9,1.5s0.7,1.3,0.7,2.2h-2.3
					c-0.1-0.7-0.4-1.2-1-1.6c-0.6-0.4-1.3-0.6-2.1-0.6c-0.6,0-1.1,0.1-1.6,0.3s-0.8,0.5-1,0.8s-0.4,0.7-0.4,1.1
					c0,0.5,0.2,0.9,0.4,1.2s0.7,0.5,1.1,0.7c0.4,0.2,0.8,0.3,1.2,0.4l1.5,0.4c0.5,0.1,1,0.3,1.5,0.5s1,0.5,1.4,0.8
					c0.4,0.3,0.8,0.7,1,1.2c0.3,0.5,0.4,1.1,0.4,1.8c0,0.8-0.2,1.6-0.7,2.3c-0.4,0.7-1.1,1.2-1.9,1.6
					C538.3,44.2,537.3,44.4,536.1,44.4L536.1,44.4z"/>
				<path class="st46" d="M548.8,44.2L543.3,29h2.5l3,8.4c0.2,0.7,0.5,1.5,0.8,2.4s0.6,2.1,1,3.3H550c0.3-1.3,0.7-2.4,0.9-3.4
					c0.3-0.9,0.5-1.7,0.7-2.4l2.9-8.4h2.5l-5.4,15.2H548.8L548.8,44.2z"/>
			</g>
		</g>
		<g>
			<path d="M390.7,45.8V26.8h6.8c1.5,0,2.7,0.2,3.6,0.8s1.7,1.2,2.2,2.1s0.7,1.9,0.7,3.1c0,1.1-0.2,2.2-0.7,3.1
				c-0.5,0.9-1.2,1.6-2.2,2s-2.2,0.7-3.7,0.7h-5.1v-2.5h4.8c0.9,0,1.7-0.1,2.2-0.4s1-0.7,1.3-1.2s0.4-1.1,0.4-1.8s-0.1-1.3-0.4-1.8
				s-0.7-0.9-1.3-1.2s-1.3-0.4-2.3-0.4h-3.5v16.4L390.7,45.8L390.7,45.8z M401.5,45.8l-4.6-8.5h3.2l4.7,8.5H401.5z"/>
			<path d="M413.1,46c-1.4,0-2.6-0.3-3.6-0.9s-1.8-1.5-2.3-2.5s-0.8-2.4-0.8-3.8s0.3-2.7,0.8-3.8c0.5-1.1,1.3-2,2.3-2.6
				s2.1-0.9,3.5-0.9c0.8,0,1.6,0.1,2.4,0.4c0.8,0.3,1.4,0.7,2,1.3s1.1,1.3,1.4,2.2s0.5,2,0.5,3.3v1h-11.3v-2.1h9.9l-1.3,0.7
				c0-0.9-0.1-1.6-0.4-2.3s-0.7-1.2-1.2-1.6c-0.5-0.4-1.2-0.6-2-0.6s-1.5,0.2-2,0.6s-1,0.9-1.3,1.5c-0.3,0.6-0.4,1.3-0.4,2v1.4
				c0,1,0.2,1.8,0.5,2.5c0.3,0.7,0.8,1.2,1.4,1.5s1.3,0.5,2.1,0.5c0.5,0,1-0.1,1.4-0.2s0.8-0.4,1.1-0.7s0.5-0.7,0.7-1.1l2.6,0.6
				c-0.2,0.7-0.6,1.4-1.1,1.9s-1.2,1-2,1.3C415,45.9,414.1,46,413.1,46L413.1,46z"/>
			<path d="M422.3,51V31.5h2.7v2.3h0.2c0.2-0.3,0.4-0.6,0.7-1c0.3-0.4,0.7-0.7,1.3-1s1.2-0.4,2.1-0.4c1.1,0,2.1,0.3,3,0.9
				c0.9,0.6,1.6,1.4,2.1,2.5s0.8,2.4,0.8,4s-0.2,2.8-0.8,3.9s-1.2,1.9-2.1,2.5s-1.9,0.9-3.1,0.9c-0.9,0-1.6-0.2-2.1-0.4
				c-0.5-0.3-1-0.6-1.3-1s-0.5-0.7-0.7-1h-0.1V51H422.3L422.3,51z M428.7,43.7c0.8,0,1.5-0.2,2-0.7s1-1,1.2-1.8s0.4-1.6,0.4-2.5
				s-0.1-1.8-0.4-2.5c-0.3-0.7-0.7-1.3-1.2-1.8c-0.5-0.4-1.2-0.7-2-0.7s-1.5,0.2-2,0.6s-1,1-1.2,1.7s-0.4,1.6-0.4,2.6
				s0.1,1.8,0.4,2.6c0.3,0.8,0.7,1.3,1.2,1.8S427.9,43.6,428.7,43.7L428.7,43.7z"/>
			<path d="M444.3,46c-1.3,0-2.5-0.3-3.5-0.9c-1-0.6-1.8-1.5-2.3-2.6s-0.8-2.4-0.8-3.8s0.3-2.8,0.8-3.9s1.3-2,2.3-2.6
				c1-0.6,2.2-0.9,3.5-0.9s2.5,0.3,3.5,0.9c1,0.6,1.8,1.5,2.3,2.6s0.8,2.4,0.8,3.9s-0.3,2.7-0.8,3.8s-1.3,2-2.3,2.6
				C446.8,45.7,445.6,46,444.3,46z M444.3,43.7c0.9,0,1.6-0.2,2.1-0.7c0.6-0.5,1-1,1.3-1.8c0.3-0.8,0.4-1.6,0.4-2.5
				s-0.1-1.7-0.4-2.5c-0.3-0.8-0.7-1.4-1.3-1.8c-0.6-0.5-1.3-0.7-2.1-0.7s-1.6,0.2-2.1,0.7s-1,1.1-1.2,1.8s-0.4,1.6-0.4,2.5
				s0.1,1.7,0.4,2.5c0.3,0.8,0.7,1.3,1.2,1.8S443.5,43.7,444.3,43.7z"/>
			<path d="M454,45.8V31.6h2.7v2.3h0.1c0.3-0.8,0.7-1.4,1.4-1.8s1.4-0.7,2.2-0.7c0.2,0,0.4,0,0.6,0s0.4,0,0.6,0.1v2.7
				c-0.1,0-0.3-0.1-0.6-0.1s-0.6,0-0.9,0c-0.6,0-1.2,0.1-1.7,0.4s-0.9,0.7-1.2,1.1s-0.4,1-0.4,1.7v8.6L454,45.8L454,45.8z"/>
			<path d="M470.6,31.5v2.3h-7.7v-2.3H470.6z M465,28.2h2.8v13.7c0,0.6,0.1,1,0.4,1.2s0.6,0.4,1.2,0.4c0.1,0,0.3,0,0.6,0
				s0.4-0.1,0.6-0.1l0.5,2.2c-0.3,0.1-0.6,0.2-1,0.2s-0.7,0.1-1,0.1c-1.3,0-2.3-0.3-3-1s-1.1-1.6-1.1-2.8L465,28.2L465,28.2z"/>
		</g>
	</g>
	<path class="st0" d="M22.6,3.5h174.9c11.7,0,21.1,9.5,21.1,21.1v221.9c0,11.7-9.5,21.1-21.1,21.1H22.6c-11.7,0-21.1-9.5-21.1-21.1
		V24.6C1.5,13,11,3.5,22.6,3.5z"/>
	<g>
		<path d="M19.1,46.9V27.9h6.8c1.5,0,2.7,0.3,3.6,0.8s1.7,1.3,2.2,2.2s0.7,2,0.7,3.1s-0.2,2.2-0.7,3.1c-0.5,0.9-1.2,1.7-2.2,2.2
			s-2.2,0.8-3.7,0.8h-4.6v-2.5h4.4c0.9,0,1.7-0.2,2.3-0.5s1-0.8,1.3-1.3c0.3-0.6,0.4-1.2,0.4-1.9s-0.1-1.3-0.4-1.9
			c-0.3-0.5-0.7-1-1.3-1.3s-1.3-0.5-2.3-0.5H22v16.4L19.1,46.9L19.1,46.9z"/>
		<path d="M39.4,47.2c-0.9,0-1.7-0.2-2.4-0.5s-1.3-0.8-1.7-1.5s-0.6-1.4-0.6-2.4c0-0.8,0.2-1.5,0.5-2c0.3-0.5,0.7-0.9,1.3-1.2
			s1.1-0.5,1.8-0.7c0.7-0.2,1.3-0.3,2-0.3c0.8-0.1,1.5-0.2,2-0.2s0.9-0.2,1.2-0.3s0.4-0.4,0.4-0.7v-0.1c0-0.5-0.1-1-0.3-1.3
			s-0.5-0.7-0.9-0.8c-0.4-0.2-0.9-0.3-1.5-0.3s-1.2,0.1-1.6,0.3c-0.5,0.2-0.8,0.4-1.1,0.7c-0.3,0.3-0.5,0.6-0.6,0.9L35,36
			c0.3-0.8,0.8-1.5,1.4-2s1.3-0.9,2.1-1.1s1.6-0.4,2.4-0.4c0.6,0,1.2,0.1,1.8,0.2s1.2,0.4,1.8,0.7s1,0.8,1.4,1.5s0.5,1.5,0.5,2.5
			v9.4h-2.7v-1.9h-0.1c-0.2,0.4-0.5,0.7-0.8,1.1s-0.8,0.6-1.4,0.9C40.8,47.1,40.2,47.2,39.4,47.2L39.4,47.2z M40,44.9
			c0.8,0,1.4-0.2,2-0.4s1-0.7,1.2-1.2s0.4-1,0.4-1.6v-1.8c-0.1,0.1-0.3,0.2-0.6,0.3c-0.3,0.1-0.6,0.2-1,0.2s-0.7,0.1-1,0.2
			s-0.6,0.1-0.8,0.1c-0.5,0.1-1,0.2-1.4,0.3s-0.8,0.4-1,0.7c-0.3,0.3-0.4,0.7-0.4,1.2c0,0.5,0.1,0.8,0.3,1.1s0.5,0.5,1,0.7
			S39.5,44.9,40,44.9L40,44.9z"/>
		<path d="M49.6,52l0.7-2.3l0.3,0.1c0.5,0.1,0.9,0.2,1.3,0.1c0.4-0.1,0.7-0.2,1-0.5s0.5-0.8,0.7-1.4l0.3-1l-5.4-14.3h3l2.8,8.1
			c0.3,0.9,0.6,1.8,0.8,2.7s0.4,1.8,0.7,2.7h-0.9c0.2-0.9,0.5-1.8,0.7-2.7c0.2-0.9,0.5-1.8,0.8-2.7l2.9-8.1h3l-6.2,16.2
			c-0.3,0.8-0.6,1.4-1.1,1.9c-0.4,0.5-0.9,0.9-1.5,1.2s-1.2,0.4-2,0.4c-0.4,0-0.8,0-1.2-0.1S49.8,52,49.6,52L49.6,52z"/>
		<path d="M64.8,46.9V32.7h2.7V35h0.2c0.3-0.8,0.7-1.4,1.4-1.8s1.4-0.7,2.2-0.7c0.2,0,0.4,0,0.6,0s0.4,0,0.6,0.1v2.7
			c-0.1,0-0.3-0.1-0.6-0.1s-0.6,0-0.9,0c-0.6,0-1.2,0.1-1.7,0.4s-0.9,0.7-1.2,1.1s-0.4,1-0.4,1.7v8.6L64.8,46.9L64.8,46.9z"/>
		<path d="M80.3,47.2c-1.3,0-2.5-0.3-3.5-0.9c-1-0.6-1.8-1.5-2.3-2.6s-0.8-2.4-0.8-3.8s0.3-2.8,0.8-3.9s1.3-2,2.3-2.6
			c1-0.6,2.2-0.9,3.5-0.9s2.5,0.3,3.5,0.9c1,0.6,1.8,1.5,2.3,2.6s0.8,2.4,0.8,3.9s-0.3,2.7-0.8,3.8s-1.3,2-2.3,2.6
			C82.8,46.9,81.6,47.2,80.3,47.2z M80.3,44.8c0.9,0,1.6-0.2,2.1-0.7s1-1,1.3-1.8c0.3-0.8,0.4-1.6,0.4-2.5s-0.1-1.7-0.4-2.5
			c-0.3-0.8-0.7-1.4-1.3-1.8c-0.6-0.5-1.3-0.7-2.1-0.7s-1.6,0.2-2.1,0.7s-1,1.1-1.2,1.8s-0.4,1.6-0.4,2.5s0.1,1.7,0.4,2.5
			c0.3,0.8,0.7,1.3,1.2,1.8S79.4,44.8,80.3,44.8z"/>
		<path d="M92.8,27.9v18.9H90V27.9H92.8z"/>
		<path d="M99.3,27.9v18.9h-2.8V27.9H99.3z"/>
	</g>
	<g>
		<path class="st47" d="M154.3,21.1h25.1c10.5,0,19,8.5,19,19l0,0c0,10.5-8.5,19-19,19h-25.1c-10.5,0-19-8.5-19-19l0,0
			C135.3,29.6,143.8,21.1,154.3,21.1z"/>
		<g>
			<path class="st46" d="M148.1,47.6v-15h5.4c1.2,0,2.1,0.2,2.9,0.7c0.8,0.4,1.4,1,1.7,1.7s0.6,1.6,0.6,2.5s-0.2,1.8-0.6,2.5
				s-1,1.3-1.7,1.7c-0.8,0.4-1.7,0.6-2.9,0.6h-3.7v-2h3.5c0.7,0,1.3-0.1,1.8-0.4c0.5-0.3,0.8-0.6,1-1s0.3-0.9,0.3-1.5
				s-0.1-1.1-0.3-1.5s-0.6-0.8-1-1c-0.5-0.2-1.1-0.4-1.8-0.4h-2.8v13.1L148.1,47.6L148.1,47.6z"/>
			<path class="st46" d="M163.7,32.6v15h-2.3v-15H163.7z M166.2,47.6h-3.7v-2h3.6c1.1,0,2.1-0.2,2.8-0.6c0.8-0.4,1.3-1,1.7-1.9
				c0.4-0.8,0.6-1.8,0.6-3s-0.2-2.2-0.6-3s-0.9-1.4-1.7-1.9s-1.6-0.6-2.8-0.6h-3.8v-2h3.9c1.5,0,2.8,0.3,3.8,0.9
				c1.1,0.6,1.9,1.5,2.4,2.6c0.6,1.1,0.9,2.5,0.9,4s-0.3,2.9-0.9,4s-1.4,2-2.5,2.6S167.8,47.6,166.2,47.6L166.2,47.6z"/>
			<path class="st46" d="M176.3,47.6v-15h9.4v2h-7.1v4.8h6.4v2h-6.4v6.2C178.6,47.6,176.3,47.6,176.3,47.6z"/>
		</g>
	</g>
	<g>
		
			<linearGradient id="SVGID_00000147179671369394544180000016704903070372589472_" gradientUnits="userSpaceOnUse" x1="19.06" y1="191.99" x2="97.46" y2="191.99" gradientTransform="matrix(1 0 0 -1 0 272)">
			<stop  offset="0" style="stop-color:#E8E8E8"/>
			<stop  offset="1" style="stop-color:#F2F2F2"/>
		</linearGradient>
		<path style="fill:url(#SVGID_00000147179671369394544180000016704903070372589472_);" d="M24.4,74.6h67.6c3,0,5.4,2.4,5.4,5.4l0,0
			c0,3-2.4,5.4-5.4,5.4H24.4c-3,0-5.4-2.4-5.4-5.4l0,0C19.1,77,21.5,74.6,24.4,74.6z"/>
		
			<linearGradient id="SVGID_00000093899726105147421140000007480172396006603648_" gradientUnits="userSpaceOnUse" x1="19.06" y1="173.74" x2="119.43" y2="173.74" gradientTransform="matrix(1 0 0 -1 0 272)">
			<stop  offset="0" style="stop-color:#E8E8E8"/>
			<stop  offset="1" style="stop-color:#F2F2F2"/>
		</linearGradient>
		<path style="fill:url(#SVGID_00000093899726105147421140000007480172396006603648_);" d="M24.4,92.9H114c3,0,5.4,2.4,5.4,5.4l0,0
			c0,3-2.4,5.4-5.4,5.4H24.4c-3,0-5.4-2.4-5.4-5.4l0,0C19.1,95.3,21.5,92.9,24.4,92.9z"/>
		
			<linearGradient id="SVGID_00000113322891328388455930000014741834671388439971_" gradientUnits="userSpaceOnUse" x1="19.06" y1="159.26" x2="119.43" y2="159.26" gradientTransform="matrix(1 0 0 -1 0 272)">
			<stop  offset="0" style="stop-color:#E8E8E8"/>
			<stop  offset="1" style="stop-color:#F2F2F2"/>
		</linearGradient>
		<path style="fill:url(#SVGID_00000113322891328388455930000014741834671388439971_);" d="M24.4,107.3H114c3,0,5.4,2.4,5.4,5.4l0,0
			c0,3-2.4,5.4-5.4,5.4H24.4c-3,0-5.4-2.4-5.4-5.4l0,0C19.1,109.8,21.5,107.3,24.4,107.3z"/>
		
			<linearGradient id="SVGID_00000070099678813560833750000009209724183720901517_" gradientUnits="userSpaceOnUse" x1="19.06" y1="144.78" x2="119.43" y2="144.78" gradientTransform="matrix(1 0 0 -1 0 272)">
			<stop  offset="0" style="stop-color:#E8E8E8"/>
			<stop  offset="1" style="stop-color:#F2F2F2"/>
		</linearGradient>
		<path style="fill:url(#SVGID_00000070099678813560833750000009209724183720901517_);" d="M24.4,121.8H114c3,0,5.4,2.4,5.4,5.4l0,0
			c0,3-2.4,5.4-5.4,5.4H24.4c-3,0-5.4-2.4-5.4-5.4l0,0C19.1,124.2,21.5,121.8,24.4,121.8z"/>
		
			<linearGradient id="SVGID_00000109001488378296187550000007238221577684782758_" gradientUnits="userSpaceOnUse" x1="122.74" y1="173.74" x2="197.95" y2="173.74" gradientTransform="matrix(1 0 0 -1 0 272)">
			<stop  offset="0" style="stop-color:#E8E8E8"/>
			<stop  offset="1" style="stop-color:#F2F2F2"/>
		</linearGradient>
		<path style="fill:url(#SVGID_00000109001488378296187550000007238221577684782758_);" d="M128.1,92.9h64.4c3,0,5.4,2.4,5.4,5.4
			l0,0c0,3-2.4,5.4-5.4,5.4h-64.4c-3,0-5.4-2.4-5.4-5.4l0,0C122.7,95.3,125.2,92.9,128.1,92.9z"/>
		
			<linearGradient id="SVGID_00000147222066935809115860000013575917564802422970_" gradientUnits="userSpaceOnUse" x1="122.74" y1="161.99" x2="197.95" y2="161.99" gradientTransform="matrix(1 0 0 -1 0 272)">
			<stop  offset="0" style="stop-color:#E8E8E8"/>
			<stop  offset="1" style="stop-color:#F2F2F2"/>
		</linearGradient>
		<path style="fill:url(#SVGID_00000147222066935809115860000013575917564802422970_);" d="M128.1,104.6h64.4c3,0,5.4,2.4,5.4,5.4
			l0,0c0,3-2.4,5.4-5.4,5.4h-64.4c-3,0-5.4-2.4-5.4-5.4l0,0C122.7,107,125.2,104.6,128.1,104.6z"/>
		
			<linearGradient id="SVGID_00000049220991681035378550000016754295157245778052_" gradientUnits="userSpaceOnUse" x1="122.74" y1="150.24" x2="197.95" y2="150.24" gradientTransform="matrix(1 0 0 -1 0 272)">
			<stop  offset="0" style="stop-color:#E8E8E8"/>
			<stop  offset="1" style="stop-color:#F2F2F2"/>
		</linearGradient>
		<path style="fill:url(#SVGID_00000049220991681035378550000016754295157245778052_);" d="M128.1,116.4h64.4c3,0,5.4,2.4,5.4,5.4
			l0,0c0,3-2.4,5.4-5.4,5.4h-64.4c-3,0-5.4-2.4-5.4-5.4l0,0C122.7,118.8,125.2,116.4,128.1,116.4z"/>
		
			<linearGradient id="SVGID_00000075883431078625647880000012107120755650964356_" gradientUnits="userSpaceOnUse" x1="19.06" y1="125.08" x2="139.6" y2="125.08" gradientTransform="matrix(1 0 0 -1 0 272)">
			<stop  offset="0" style="stop-color:#E8E8E8"/>
			<stop  offset="1" style="stop-color:#F2F2F2"/>
		</linearGradient>
		<path style="fill:url(#SVGID_00000075883431078625647880000012107120755650964356_);" d="M24.4,141.5h109.8c3,0,5.4,2.4,5.4,5.4
			l0,0c0,3-2.4,5.4-5.4,5.4H24.4c-3,0-5.4-2.4-5.4-5.4l0,0C19.1,143.9,21.5,141.5,24.4,141.5z"/>
		
			<linearGradient id="SVGID_00000002373130548800701600000003144030554654961582_" gradientUnits="userSpaceOnUse" x1="19.06" y1="112.33" x2="139.6" y2="112.33" gradientTransform="matrix(1 0 0 -1 0 272)">
			<stop  offset="0" style="stop-color:#E8E8E8"/>
			<stop  offset="1" style="stop-color:#F2F2F2"/>
		</linearGradient>
		<path style="fill:url(#SVGID_00000002373130548800701600000003144030554654961582_);" d="M24.4,154.3h109.8c3,0,5.4,2.4,5.4,5.4
			l0,0c0,3-2.4,5.4-5.4,5.4H24.4c-3,0-5.4-2.4-5.4-5.4l0,0C19.1,156.7,21.5,154.3,24.4,154.3z"/>
		
			<linearGradient id="SVGID_00000111178420306093710410000000048370376705805967_" gradientUnits="userSpaceOnUse" x1="19.06" y1="99.58" x2="139.6" y2="99.58" gradientTransform="matrix(1 0 0 -1 0 272)">
			<stop  offset="0" style="stop-color:#E8E8E8"/>
			<stop  offset="1" style="stop-color:#F2F2F2"/>
		</linearGradient>
		<path style="fill:url(#SVGID_00000111178420306093710410000000048370376705805967_);" d="M24.4,167h109.8c3,0,5.4,2.4,5.4,5.4l0,0
			c0,3-2.4,5.4-5.4,5.4H24.4c-3,0-5.4-2.4-5.4-5.4l0,0C19.1,169.4,21.5,167,24.4,167z"/>
		
			<linearGradient id="SVGID_00000183229740650196017310000000887073277309683086_" gradientUnits="userSpaceOnUse" x1="19.06" y1="86.83" x2="139.6" y2="86.83" gradientTransform="matrix(1 0 0 -1 0 272)">
			<stop  offset="0" style="stop-color:#E8E8E8"/>
			<stop  offset="1" style="stop-color:#F2F2F2"/>
		</linearGradient>
		<path style="fill:url(#SVGID_00000183229740650196017310000000887073277309683086_);" d="M24.4,179.8h109.8c3,0,5.4,2.4,5.4,5.4
			l0,0c0,3-2.4,5.4-5.4,5.4H24.4c-3,0-5.4-2.4-5.4-5.4l0,0C19.1,182.2,21.5,179.8,24.4,179.8z"/>
		
			<linearGradient id="SVGID_00000176729542516608882810000005571108596605814402_" gradientUnits="userSpaceOnUse" x1="19.06" y1="74.08" x2="139.6" y2="74.08" gradientTransform="matrix(1 0 0 -1 0 272)">
			<stop  offset="0" style="stop-color:#E8E8E8"/>
			<stop  offset="1" style="stop-color:#F2F2F2"/>
		</linearGradient>
		<path style="fill:url(#SVGID_00000176729542516608882810000005571108596605814402_);" d="M24.4,192.5h109.8c3,0,5.4,2.4,5.4,5.4
			l0,0c0,3-2.4,5.4-5.4,5.4H24.4c-3,0-5.4-2.4-5.4-5.4l0,0C19.1,194.9,21.5,192.5,24.4,192.5z"/>
		
			<linearGradient id="SVGID_00000045604976928174006680000007476260099097369496_" gradientUnits="userSpaceOnUse" x1="19.06" y1="54.74" x2="44.1" y2="54.74" gradientTransform="matrix(1 0 0 -1 0 272)">
			<stop  offset="0" style="stop-color:#E8E8E8"/>
			<stop  offset="1" style="stop-color:#F2F2F2"/>
		</linearGradient>
		<path style="fill:url(#SVGID_00000045604976928174006680000007476260099097369496_);" d="M24.4,211.9h14.3c3,0,5.4,2.4,5.4,5.4
			l0,0c0,3-2.4,5.4-5.4,5.4H24.4c-3,0-5.4-2.4-5.4-5.4l0,0C19.1,214.3,21.5,211.9,24.4,211.9z"/>
		
			<linearGradient id="SVGID_00000021079392741618707980000012557336560070973111_" gradientUnits="userSpaceOnUse" x1="166.12" y1="54.74" x2="197.95" y2="54.74" gradientTransform="matrix(1 0 0 -1 0 272)">
			<stop  offset="0" style="stop-color:#E8E8E8"/>
			<stop  offset="1" style="stop-color:#F2F2F2"/>
		</linearGradient>
		<path style="fill:url(#SVGID_00000021079392741618707980000012557336560070973111_);" d="M171.5,211.9h21.1c3,0,5.4,2.4,5.4,5.4
			l0,0c0,3-2.4,5.4-5.4,5.4h-21.1c-3,0-5.4-2.4-5.4-5.4l0,0C166.1,214.3,168.5,211.9,171.5,211.9z"/>
		
			<linearGradient id="SVGID_00000114752091572427558920000007126069689337226401_" gradientUnits="userSpaceOnUse" x1="143.04" y1="111.225" x2="197.95" y2="111.225" gradientTransform="matrix(1 0 0 -1 0 272)">
			<stop  offset="0" style="stop-color:#E8E8E8"/>
			<stop  offset="1" style="stop-color:#F2F2F2"/>
		</linearGradient>
		<path style="fill:url(#SVGID_00000114752091572427558920000007126069689337226401_);" d="M148.4,139.9h44.1c3,0,5.4,2.4,5.4,5.4
			v31c0,3-2.4,5.4-5.4,5.4h-44.1c-3,0-5.4-2.4-5.4-5.4v-31C143,142.3,145.5,139.9,148.4,139.9z"/>
		
			<linearGradient id="SVGID_00000107584324797253067820000008102816458159740065_" gradientUnits="userSpaceOnUse" x1="168.71" y1="191.99" x2="197.95" y2="191.99" gradientTransform="matrix(1 0 0 -1 0 272)">
			<stop  offset="0" style="stop-color:#E8E8E8"/>
			<stop  offset="1" style="stop-color:#F2F2F2"/>
		</linearGradient>
		<path style="fill:url(#SVGID_00000107584324797253067820000008102816458159740065_);" d="M174.1,74.6h18.5c3,0,5.4,2.4,5.4,5.4
			l0,0c0,3-2.4,5.4-5.4,5.4h-18.5c-3,0-5.4-2.4-5.4-5.4l0,0C168.7,77,171.1,74.6,174.1,74.6z"/>
	</g>
	<g>
		
			<linearGradient id="SVGID_00000147909209036622363550000013384691197427678911_" gradientUnits="userSpaceOnUse" x1="220.03" y1="483.335" x2="249.53" y2="483.335" gradientTransform="matrix(-1 0 0 1 475.38 -347)">
			<stop  offset="0" style="stop-color:#FE4D41;stop-opacity:0.5"/>
			<stop  offset="1" style="stop-color:#FE4D41"/>
		</linearGradient>
		<path style="fill:url(#SVGID_00000147909209036622363550000013384691197427678911_);" d="M253.5,138.2h-25.8c-1,0-1.9-0.8-1.9-1.9
			v0c0-1,0.8-1.9,1.9-1.9h25.8c1,0,1.9,0.8,1.9,1.9v0C255.3,137.4,254.5,138.2,253.5,138.2z"/>
		
			<linearGradient id="SVGID_00000110440751794128673530000017215971011536110760_" gradientUnits="userSpaceOnUse" x1="126.3" y1="155.505" x2="155.8" y2="155.505" gradientTransform="matrix(1 0 0 -1 201.28 292)">
			<stop  offset="1.385225e-07" style="stop-color:#FE4D41;stop-opacity:0.5"/>
			<stop  offset="1" style="stop-color:#FE4D41"/>
		</linearGradient>
		<path style="fill:url(#SVGID_00000110440751794128673530000017215971011536110760_);" d="M329.4,134.6h25.8c1,0,1.9,0.8,1.9,1.9v0
			c0,1-0.8,1.9-1.9,1.9h-25.8c-1,0-1.9-0.8-1.9-1.9v0C327.6,135.5,328.4,134.6,329.4,134.6z"/>
		
			<linearGradient id="SVGID_00000178188417881489070050000005422555408926081185_" gradientUnits="userSpaceOnUse" x1="264.57" y1="132.84" x2="304.26" y2="132.84" gradientTransform="matrix(1 0 0 -1 0 272)">
			<stop  offset="1.385225e-07" style="stop-color:#FEB9B4"/>
			<stop  offset="1" style="stop-color:#FE4D41"/>
		</linearGradient>
		
			<path style="fill:none;stroke:url(#SVGID_00000178188417881489070050000005422555408926081185_);stroke-width:4;stroke-linecap:round;stroke-miterlimit:10;" d="
			M274.4,115.9c-4.9,4.9-7.9,11.7-7.9,19.2c0,15.1,12.1,27.3,27.1,27.3c3,0,5.9-0.5,8.5-1.4"/>
		<g>
			<circle class="st67" cx="294.6" cy="134.8" r="22.4"/>
			<g>
				<path class="st68" d="M305.3,132c-0.6-1.4-1.4-2.6-2.5-3.6c-1-1.1-2.3-1.9-3.6-2.4c-1.1-0.5-2.3-0.8-3.5-0.9v-1.3h0.7
					c0.6,0,1-0.5,1-1s-0.5-1-1-1h-3.2c-0.6,0-1,0.5-1,1s0.5,1,1,1h0.7v1.3c-2,0.2-4,0.8-5.6,2c-0.9,0.6-1.8,1.4-2.5,2.3
					c-0.6,0.7-1.1,1.5-1.4,2.4h-3c-0.5,0-0.9,0.4-0.9,0.9s0.4,0.9,0.9,0.9h3.6c0,0,0,0,0,0c0,0,0,0,0,0h3.1c0.5,0,0.9-0.4,0.9-0.9
					s-0.4-0.9-0.9-0.9h-1.7c0.2-0.4,0.5-0.9,0.8-1.2c0.6-0.8,1.3-1.4,2.1-1.9c1.6-1.1,3.5-1.7,5.5-1.7c1.3,0,2.6,0.2,3.8,0.8
					c1.1,0.5,2.2,1.2,3.1,2.1s1.6,1.9,2.1,3.1c0.5,1.2,0.8,2.4,0.8,3.8s-0.2,2.6-0.8,3.8c-0.5,1.1-1.2,2.2-2.1,3.1s-1.9,1.6-3.1,2.1
					c-1.2,0.5-2.5,0.8-3.8,0.8c-2,0-3.9-0.6-5.5-1.7c-0.8-0.5-1.5-1.2-2.1-1.9c-0.3-0.4-0.6-0.8-0.8-1.2h1.7c0.5,0,0.9-0.4,0.9-0.9
					s-0.4-0.9-0.9-0.9H285c0,0,0,0,0,0h-2.5c-0.5,0-0.9,0.4-0.9,0.9s0.4,0.9,0.9,0.9h2c0.4,0.8,0.9,1.6,1.4,2.4
					c0.7,0.9,1.5,1.7,2.5,2.3c1.9,1.3,4.2,2,6.5,2c1.5,0,3-0.3,4.5-0.9c1.4-0.6,2.6-1.4,3.6-2.4c1-1.1,1.9-2.3,2.5-3.6
					c0.6-1.4,0.9-2.9,0.9-4.4S305.9,133.4,305.3,132L305.3,132z"/>
				<path class="st68" d="M299.8,131l-4.7,3.1c-0.7-0.1-1.4,0.2-1.9,0.7c-0.4,0.4-0.7,1-0.7,1.6s0.2,1.2,0.7,1.6s1,0.7,1.6,0.7
					s1.2-0.2,1.6-0.7l0,0c0.4-0.4,0.7-1,0.7-1.6c0-0.1,0-0.2,0-0.2l3.1-4.7C300.4,131.1,300.1,130.8,299.8,131L299.8,131z
					 M295.2,136.8L295.2,136.8c-0.2,0.2-0.5,0.2-0.8,0c-0.1-0.1-0.2-0.2-0.2-0.4s0.1-0.3,0.2-0.4s0.2-0.1,0.4-0.1s0.3,0.1,0.4,0.1
					s0.2,0.2,0.2,0.4S295.2,136.7,295.2,136.8L295.2,136.8z"/>
				<path class="st68" d="M289.5,136.4c0-0.5-0.4-0.9-0.9-0.9h-8.8c-0.5,0-0.9,0.4-0.9,0.9s0.4,0.9,0.9,0.9h8.8
					C289.1,137.3,289.5,136.9,289.5,136.4z"/>
			</g>
		</g>
	</g>
</g>
</svg>
